# xmcd
#
# Track frame offsets:
#	150
#	12888
#	22628
#	34565
#	44918
#	59840
#	68238
#	81040
#	94610
#	107995
#
# Disc length: 1591 seconds
#
# Revision: 0
# Processed by: cddbd v1.5.2PL0 Copyright (c) Steve Scherf et al.
# Submitted via: audiograbber 1.83.01
#
DISCID=7c06350a
DTITLE=Charlie Pride - The Incomparable Charlie Pride
DYEAR=1987
DGENRE=Country
TTITLE0=I'd Rather Love You
TTITLE1=Time (You're not a Friend of Mine)
TTITLE2=Jeanie Norman
TTITLE3=Anywhere (Just Inside Your Arms)
TTITLE4=When The Trains Come In
TTITLE5=Piroque Joe
TTITLE6=Was It All Worth Losing You
TTITLE7=Instant Loneliness
TTITLE8=This Highway Leads To Glory
TTITLE9=Time Out For Jesus
EXTD=
EXTT0=
EXTT1=
EXTT2=
EXTT3=
EXTT4=
EXTT5=
EXTT6=
EXTT7=
EXTT8=
EXTT9=
PLAYORDER=
